<svg xmlns="http://www.w3.org/2000/svg" xmlns:xlink="http://www.w3.org/1999/xlink" width="1679" height="1814" viewBox="0 0 1679 1814">
  <defs>
    <linearGradient id="linear-gradient" x1="0.5" x2="0.5" y2="1" gradientUnits="objectBoundingBox">
      <stop offset="0" stop-color="#98a3df"/>
      <stop offset="1" stop-color="#615ac4"/>
    </linearGradient>
    <linearGradient id="linear-gradient-2" x1="0.5" x2="0.5" y2="1" gradientUnits="objectBoundingBox">
      <stop offset="0" stop-color="#8c9be4"/>
      <stop offset="1" stop-color="#dcd9f8"/>
    </linearGradient>
    <linearGradient id="linear-gradient-3" x1="0.5" x2="0.5" y2="1" gradientUnits="objectBoundingBox">
      <stop offset="0" stop-color="#fb967b"/>
      <stop offset="1" stop-color="#8e6d96"/>
    </linearGradient>
    <linearGradient id="linear-gradient-4" x1="0.5" x2="0.5" y2="1" gradientUnits="objectBoundingBox">
      <stop offset="0" stop-color="#dc9198"/>
      <stop offset="1" stop-color="#92d2d4"/>
    </linearGradient>
    <linearGradient id="linear-gradient-5" x1="0.5" x2="0.5" y2="1" gradientUnits="objectBoundingBox">
      <stop offset="0" stop-color="#dc9198"/>
      <stop offset="1" stop-color="#91d2d4"/>
    </linearGradient>
  </defs>
  <g id="Group7" transform="translate(-1676 -3881)">
    <g id="Rectangle_8" data-name="Rectangle 8" transform="translate(1676 3881)" fill="#fff" stroke="#707070" stroke-width="1" opacity="0">
      <rect width="1679" height="1814" stroke="none"/>
      <rect x="0.5" y="0.5" width="1678" height="1813" fill="none"/>
    </g>
    <g id="Group_6" data-name="Group 6" transform="translate(571 188)">
      <g id="Group_5" data-name="Group 5" transform="translate(1160.271 4134)">
        <path id="Path_6" data-name="Path 6" d="M405.6,848.636C280.14,848.636,61.84,829.782,64.016,657.9S186.582,455.555,177.155,386.656s-52.218-59.47-42.065-84.128,84.129-34.087,123.292-1.451c39.888,32.636,26.834,82.678,39.888,86.3s63.824-13.78,50.041-75.426-95.731-87.03-32.637-220.475c63.1-132.72,215.4-87.029,236.435-69.624s25.38,28.285,9.423,36.262S449.844,139.347,503.516,215.5s161.73,88.48,201.618,190.014S665.246,549.836,647.116,586.1c-18.861,36.262,11.6,63.1,42.785,54.393,31.189-7.977,13.784-48.591,29.009-48.591s69.627,65.272,23.214,142.151C695.7,810.2,552.833,848.636,405.6,848.636Z" transform="translate(377.398 0)" fill="url(#linear-gradient)"/>
        <path id="Path_7" data-name="Path 7" d="M345.677,742.411c-100.087,0-273.421-15.232-271.245-158.827S171.615,414.6,164.363,357.307s-30.46-63.822-32.636-85.579c-.726-11.6,36.987-24.658,65.272,5.8,29.009,31.186,10.153,100.809,36.262,111.687,31.186,13.055,100.082-51.492,96.46-104.435-5.077-76.876-71.8-112.413-44.24-192.915C323.919-23.447,425.453,9.915,442.133,24.42S432.7,32.4,400.79,77.363c-20.3,29.009-32.63,80.5,23.214,137.071,53.664,53.668,128.369,73.975,160.274,158.1,31.188,84.128-31.181,120.39-46.414,150.125-14.508,29.735-12.328,83.4,38.439,89.206,50.767,5.077,56.568-34.812,68.172-34.812S645.2,630,593.709,677.143C554.546,712.678,462.436,742.411,345.677,742.411Z" transform="translate(439.504 51.105)" fill="url(#linear-gradient-2)"/>
        <path id="Path_8" data-name="Path 8" d="M271.637,552.471C198.388,551.016,83.075,536.515,80.9,422.649c-1.451-114.589,46.416-119.665,31.186-163.18-14.5-43.514,5.8-46.416,37.712-21.032,31.186,25.383,26.834,67.447,26.834,67.447s23.933-58.019,77.6-77.6c54.4-20.307,102.258-58.019,96.456-112.413-5.8-55.118-25.38-67.447-15.949-72.524S469.633,56.4,478.332,182.593c8.706,125.467-75.422,144.324-89.205,195.816s45.689,52.943,68.9,43.515c23.931-9.428,33.362,3.626,24.656,34.809S432.643,556.093,271.637,552.471Z" transform="translate(478.004 254.104)" fill="url(#linear-gradient-3)"/>
        <path id="Path_9" data-name="Path 9" d="M473.069,898.6c17.6-.543,5.823-21.25-21.038-52.062-27.249-30.826-104.1-76.2-153.738-250.624s-43.428-195.65-87.819-198.025-1.737,105.494,30.242,179.33,36.06,121.643,2.941,120.243c-33.1-1.769-120.7-101.631-130.191-318.517S176.039,63.306,128.614,15.412C80.8-32.5-8.292,99.921,1.47,275.181c9.353,175.61,38.491,287.961,147.614,423.547S316.32,843,326.928,827.215c11.386-15.754-35.07-37.944-42.5-66.967s5.87-29.426,24.467-12.077S441.778,899.53,473.069,898.6Z" transform="translate(0 32.892)" fill="url(#linear-gradient-4)"/>
        <path id="Path_10" data-name="Path 10" d="M164.982,898.813c-17.607-.55-5.823-21.257,21.034-52.062,27.253-30.826,104.1-76.209,153.742-250.626s43.426-195.65,87.819-198.025,1.734,105.494-30.241,179.33-36.064,121.645-2.946,120.245c33.1-1.769,120.7-101.633,130.193-318.519S462.011,63.513,509.434,15.619C557.248-32.3,646.342,100.127,636.577,275.388,627.223,451,598.089,563.348,488.965,698.937S321.725,843.213,311.118,827.417c-11.387-15.747,35.075-37.937,42.5-66.96s-5.865-29.433-24.467-12.077S196.268,899.739,164.982,898.813Z" transform="translate(929.961 34.125)" fill="url(#linear-gradient-5)"/>
      </g>
    </g>
  </g>
</svg>
