<svg xmlns="http://www.w3.org/2000/svg" xmlns:xlink="http://www.w3.org/1999/xlink" width="1679" height="1814" viewBox="0 0 1679 1814">
  <defs>
    <linearGradient id="linear-gradient" x1="0.859" y1="0.205" x2="-0.23" y2="1.183" gradientUnits="objectBoundingBox">
      <stop offset="0" stop-color="#d2e7e6"/>
      <stop offset="1" stop-color="#9eb0af" stop-opacity="0.702"/>
    </linearGradient>
    <filter id="Rectangle_4" x="223.395" y="454.842" width="1244.513" height="760.361" filterUnits="userSpaceOnUse">
      <feOffset dy="3" input="SourceAlpha"/>
      <feGaussianBlur stdDeviation="3" result="blur"/>
      <feFlood flood-opacity="0.161"/>
      <feComposite operator="in" in2="blur"/>
      <feComposite in="SourceGraphic"/>
    </filter>
    <linearGradient id="linear-gradient-2" x1="0.5" y1="1" x2="0.5" y2="-0.583" gradientUnits="objectBoundingBox">
      <stop offset="0" stop-color="#b75959"/>
      <stop offset="1" stop-color="#854242"/>
    </linearGradient>
    <linearGradient id="linear-gradient-3" x1="0.5" x2="0.5" y2="1" gradientUnits="objectBoundingBox">
      <stop offset="0" stop-color="#d6d5d4"/>
      <stop offset="1" stop-color="#b47574"/>
    </linearGradient>
    <linearGradient id="linear-gradient-4" x1="0.822" y1="-0.004" x2="0.001" y2="-0.022" gradientUnits="objectBoundingBox">
      <stop offset="0" stop-color="#9bc3c6"/>
      <stop offset="1" stop-color="#76acb5"/>
    </linearGradient>
    <linearGradient id="linear-gradient-5" y1="0.818" x2="1.104" y2="0.5" gradientUnits="objectBoundingBox">
      <stop offset="0" stop-color="#b75959"/>
      <stop offset="1" stop-color="#bd5c5c" stop-opacity="0.29"/>
    </linearGradient>
  </defs>
  <g id="Group5" transform="translate(2459 -2043)">
    <g id="Rectangle_7" data-name="Rectangle 7" transform="translate(-2459 2043)" fill="#fff" stroke="#707070" stroke-width="1" opacity="0">
      <rect width="1679" height="1814" stroke="none"/>
      <rect x="0.5" y="0.5" width="1678" height="1813" fill="none"/>
    </g>
    <g id="Group5-2" data-name="Group5" transform="translate(-2351.577 2327.845)">
      <g id="Group_4" data-name="Group 4">
        <rect id="Rectangle_1" data-name="Rectangle 1" width="139.865" height="279.731" rx="2" transform="translate(1051.307 660.146) rotate(180)" fill="#066f84"/>
        <g id="Group_1" data-name="Group 1" transform="translate(0 352.274)">
          <rect id="Rectangle_2" data-name="Rectangle 2" width="1232.676" height="717.912" rx="4.5" transform="translate(1232.676 717.912) rotate(180)" fill="none" stroke="#b75959" stroke-width="1"/>
        </g>
        <g id="Group_2" data-name="Group 2" transform="translate(4.501 323.45)">
          <rect id="Rectangle_3" data-name="Rectangle 3" width="1232.676" height="717.912" rx="4.5" transform="translate(1232.676 717.912) rotate(180)" fill="#d6e5e5" stroke="#b75959" stroke-width="1"/>
        </g>
        <g id="Group_3" data-name="Group 3" transform="translate(124.972 175.997)">
          <g transform="matrix(1, 0, 0, 1, -232.39, -460.84)" filter="url(#Rectangle_4)">
            <rect id="Rectangle_4-2" data-name="Rectangle 4" width="1226.513" height="742.362" rx="6" transform="translate(1458.91 1203.2) rotate(180)" fill="url(#linear-gradient)"/>
          </g>
        </g>
        <path id="Path_1" data-name="Path 1" d="M1191.607,133.833H80.3c-36.834,0-51.3,47.777-20.651,68.211L211.324,303.156a37.217,37.217,0,0,0,20.65,6.254H1360.979c37.8,0,51.541-49.82,19.078-69.2L1210.692,139.1A37.165,37.165,0,0,0,1191.607,133.833Z" transform="translate(19.907 934.186)" fill="#b75959" stroke="#b75959" stroke-width="1"/>
        <path id="Path_2" data-name="Path 2" d="M1192.166,133.833H80.858c-36.834,0-51.3,47.777-20.65,68.211L211.879,303.156a37.219,37.219,0,0,0,20.651,6.254h1129c37.8,0,51.541-49.82,19.086-69.2L1211.244,139.1A37.158,37.158,0,0,0,1192.166,133.833Z" transform="translate(23.947 934.186)" stroke="#b75959" stroke-width="1" fill="url(#linear-gradient-2)"/>
        <rect id="Rectangle_5" data-name="Rectangle 5" width="103.306" height="275.767" rx="2" transform="matrix(-0.899, -0.438, 0.438, -0.899, 835.638, 833.094)" fill="url(#linear-gradient-3)"/>
        <rect id="Rectangle_6" data-name="Rectangle 6" width="122.368" height="275.767" rx="2" transform="translate(1031.843 652.133) rotate(178)" fill="url(#linear-gradient-4)"/>
        <path id="Path_3" data-name="Path 3" d="M183.539,423.52c-54.362,1.973-71.851-72.327-22.321-94.807L345.9,244.9a49.461,49.461,0,0,0,11.458-7.226L620.18,16.433c27.987-23.557,70.974-9.782,80.049,25.653l94.246,367.78c8.811,34.374-20.244,66.621-55.346,61.425L375.018,417.4a49.568,49.568,0,0,0-9.067-.5Z" transform="translate(667.272 -4.736)" fill="url(#linear-gradient-5)"/>
        <path id="Path_4" data-name="Path 4" d="M234.628,112.315c5.568,5.1,54.519,5.237,53.725,17.931,16.786,39.452-47.876,17.938-42.407,43.039-1,10.449,15.528,12.607,25.6,17.07,16.786,7.437,23.5,17.931-6.718,36.734-26.846,10.75-11.988,13.282,11.334,21.507,13.427,17.931,10.068,28.689,0,32.275a87.635,87.635,0,0,1-61.7,25.105c-26.887,0-41.158-12.582-51.657-31.9-24.48-45.048-34.449-100.2-17.663-148.642C152.99,102.777,166.07,79.9,187.6,58.527c57.6,0,80.6,0,104.107-.006C311.856,119.487,240.328,74.234,234.628,112.315Z" transform="translate(702.239 386.446)" fill="#ac5251"/>
        <path id="Path_5" data-name="Path 5" d="M153.866,21.913c46.213,147.056,193.911,146.86,118.345,376.56" transform="translate(826.194 120.194)" fill="none" stroke="#b75959" stroke-width="1"/>
      </g>
    </g>
  </g>
</svg>
